<mxfile host="Electron" modified="2021-12-08T18:37:01.310Z" agent="5.0 (X11; Linux x86_64) AppleWebKit/537.36 (KHTML, like Gecko) draw.io/15.8.7 Chrome/91.0.4472.164 Electron/13.6.2 Safari/537.36" etag="ORhqbTlwa2YXo9o2zHcl" compressed="false" version="15.8.7" type="device">
  <diagram id="prtHgNgQTEPvFCAcTncT" name="Processos Alto Nível">
    <mxGraphModel dx="2370" dy="1493" grid="1" gridSize="10" guides="1" tooltips="1" connect="1" arrows="1" fold="1" page="1" pageScale="1" pageWidth="827" pageHeight="1169" math="0" shadow="0">
      <root>
        <mxCell id="0" />
        <mxCell id="1" parent="0" />
        <mxCell id="NLFkMVxidJrpuLbfi5vq-1" value="&lt;b&gt;Desafio 3: &lt;font color=&quot;#5b7b65&quot;&gt;Novo Processo&lt;/font&gt;&lt;/b&gt;&lt;br&gt;Optimização da prospeção de vinhas velhas na Região Demarcada do Douro" style="text;html=1;strokeColor=none;fillColor=none;align=left;verticalAlign=middle;whiteSpace=wrap;rounded=0;fontSize=30;fontFamily=Roboto;fontSource=https%3A%2F%2Ffonts.googleapis.com%2Fcss%3Ffamily%3DRoboto;" parent="1" vertex="1">
          <mxGeometry x="40" y="120" width="1060" height="100" as="geometry" />
        </mxCell>
        <mxCell id="8Ae6zeDYgx-UutW48Nks-54" value="&lt;font style=&quot;font-size: 50px;&quot;&gt;&lt;b style=&quot;font-size: 50px;&quot;&gt;SOS VITIS&lt;/b&gt;&lt;/font&gt;" style="text;html=1;strokeColor=none;fillColor=none;align=center;verticalAlign=middle;whiteSpace=wrap;rounded=0;fontFamily=Roboto;fontSize=50;fontColor=#000000;fontSource=https%3A%2F%2Ffonts.googleapis.com%2Fcss%3Ffamily%3DRoboto;" parent="1" vertex="1">
          <mxGeometry x="40" y="40" width="230" height="80" as="geometry" />
        </mxCell>
        <mxCell id="RrkdCd4so9SFuspl1RXy-1" value="&lt;span style=&quot;font-size: 15px ; background-color: rgb(255 , 255 , 255)&quot;&gt;PN4. Optimização de Recolhas&lt;/span&gt;" style="swimlane;html=1;childLayout=stackLayout;resizeParent=1;resizeParentMax=0;horizontal=1;startSize=20;horizontalStack=0;" parent="1" vertex="1">
          <mxGeometry x="40" y="240" width="2110" height="390" as="geometry">
            <mxRectangle x="40" y="1730" width="250" height="20" as="alternateBounds" />
          </mxGeometry>
        </mxCell>
        <mxCell id="RrkdCd4so9SFuspl1RXy-3" value="&lt;span style=&quot;font-size: 15px&quot;&gt;PORVID&lt;/span&gt;" style="swimlane;html=1;startSize=20;horizontal=0;" parent="RrkdCd4so9SFuspl1RXy-1" vertex="1">
          <mxGeometry y="20" width="2110" height="370" as="geometry" />
        </mxCell>
        <mxCell id="RrkdCd4so9SFuspl1RXy-9" value="" style="points=[[0.25,0.25,0],[0.5,0,0],[0.75,0.25,0],[1,0.5,0],[0.75,0.75,0],[0.5,1,0],[0.25,0.75,0],[0,0.5,0]];shape=mxgraph.bpmn.gateway2;html=1;verticalLabelPosition=bottom;labelBackgroundColor=#ffffff;verticalAlign=top;align=center;perimeter=rhombusPerimeter;outlineConnect=0;outline=none;symbol=none;gwType=exclusive;fontSize=15;strokeWidth=2;" parent="RrkdCd4so9SFuspl1RXy-3" vertex="1">
          <mxGeometry x="840" y="135" width="50" height="50" as="geometry" />
        </mxCell>
        <mxCell id="RrkdCd4so9SFuspl1RXy-10" value="Processo VITIS" style="edgeStyle=orthogonalEdgeStyle;rounded=0;orthogonalLoop=1;jettySize=auto;html=1;fontSize=15;startArrow=none;startFill=0;endArrow=classic;endFill=1;strokeWidth=2;" parent="RrkdCd4so9SFuspl1RXy-3" source="RrkdCd4so9SFuspl1RXy-9" target="RrkdCd4so9SFuspl1RXy-33" edge="1">
          <mxGeometry x="-0.4483" relative="1" as="geometry">
            <mxPoint x="1230" y="160" as="targetPoint" />
            <mxPoint as="offset" />
          </mxGeometry>
        </mxCell>
        <mxCell id="RrkdCd4so9SFuspl1RXy-11" style="edgeStyle=orthogonalEdgeStyle;rounded=0;orthogonalLoop=1;jettySize=auto;html=1;fontSize=15;startArrow=none;startFill=0;endArrow=classic;endFill=1;strokeWidth=2;" parent="RrkdCd4so9SFuspl1RXy-3" source="RrkdCd4so9SFuspl1RXy-9" target="RrkdCd4so9SFuspl1RXy-23" edge="1">
          <mxGeometry relative="1" as="geometry">
            <Array as="points">
              <mxPoint x="880" y="305" />
            </Array>
            <mxPoint x="1150" y="255" as="targetPoint" />
          </mxGeometry>
        </mxCell>
        <mxCell id="RrkdCd4so9SFuspl1RXy-12" value="Não processo VITIS" style="edgeLabel;html=1;align=center;verticalAlign=middle;resizable=0;points=[];fontSize=15;" parent="RrkdCd4so9SFuspl1RXy-11" vertex="1" connectable="0">
          <mxGeometry x="-0.0973" y="-1" relative="1" as="geometry">
            <mxPoint x="54" y="-6" as="offset" />
          </mxGeometry>
        </mxCell>
        <mxCell id="RrkdCd4so9SFuspl1RXy-13" style="edgeStyle=orthogonalEdgeStyle;rounded=0;orthogonalLoop=1;jettySize=auto;html=1;startArrow=none;startFill=0;endArrow=classic;endFill=1;strokeWidth=2;" parent="RrkdCd4so9SFuspl1RXy-3" source="RrkdCd4so9SFuspl1RXy-72" target="RrkdCd4so9SFuspl1RXy-17" edge="1">
          <mxGeometry relative="1" as="geometry">
            <mxPoint x="2137.999999999999" y="160.00000000000045" as="targetPoint" />
            <mxPoint x="2064" y="160" as="sourcePoint" />
          </mxGeometry>
        </mxCell>
        <mxCell id="RrkdCd4so9SFuspl1RXy-17" value="" style="points=[[0.145,0.145,0],[0.5,0,0],[0.855,0.145,0],[1,0.5,0],[0.855,0.855,0],[0.5,1,0],[0.145,0.855,0],[0,0.5,0]];shape=mxgraph.bpmn.event;html=1;verticalLabelPosition=bottom;labelBackgroundColor=#ffffff;verticalAlign=top;align=center;perimeter=ellipsePerimeter;outlineConnect=0;aspect=fixed;outline=end;symbol=terminate2;rounded=0;shadow=0;glass=0;sketch=0;fontSize=15;" parent="RrkdCd4so9SFuspl1RXy-3" vertex="1">
          <mxGeometry x="2034" y="135" width="50" height="50" as="geometry" />
        </mxCell>
        <mxCell id="RrkdCd4so9SFuspl1RXy-18" style="edgeStyle=orthogonalEdgeStyle;rounded=0;jumpStyle=arc;orthogonalLoop=1;jettySize=auto;html=1;labelBackgroundColor=default;fontSize=15;startArrow=none;startFill=0;endArrow=classic;endFill=1;strokeWidth=2;" parent="RrkdCd4so9SFuspl1RXy-3" source="RrkdCd4so9SFuspl1RXy-19" target="RrkdCd4so9SFuspl1RXy-21" edge="1">
          <mxGeometry relative="1" as="geometry" />
        </mxCell>
        <mxCell id="RrkdCd4so9SFuspl1RXy-19" value="" style="points=[[0.145,0.145,0],[0.5,0,0],[0.855,0.145,0],[1,0.5,0],[0.855,0.855,0],[0.5,1,0],[0.145,0.855,0],[0,0.5,0]];shape=mxgraph.bpmn.event;html=1;verticalLabelPosition=bottom;labelBackgroundColor=#ffffff;verticalAlign=top;align=center;perimeter=ellipsePerimeter;outlineConnect=0;aspect=fixed;outline=standard;symbol=general;" parent="RrkdCd4so9SFuspl1RXy-3" vertex="1">
          <mxGeometry x="50" y="135" width="50" height="50" as="geometry" />
        </mxCell>
        <mxCell id="RrkdCd4so9SFuspl1RXy-20" style="edgeStyle=orthogonalEdgeStyle;rounded=0;jumpStyle=arc;orthogonalLoop=1;jettySize=auto;html=1;labelBackgroundColor=default;fontSize=15;startArrow=none;startFill=0;endArrow=classic;endFill=1;strokeWidth=2;" parent="RrkdCd4so9SFuspl1RXy-3" source="RrkdCd4so9SFuspl1RXy-21" target="RrkdCd4so9SFuspl1RXy-27" edge="1">
          <mxGeometry relative="1" as="geometry">
            <mxPoint x="410" y="149.99999999999955" as="sourcePoint" />
            <mxPoint x="369.9999999999998" y="150" as="targetPoint" />
          </mxGeometry>
        </mxCell>
        <mxCell id="RrkdCd4so9SFuspl1RXy-21" value="Parcelas de interesse a prospetar" style="points=[[0.25,0,0],[0.5,0,0],[0.75,0,0],[1,0.25,0],[1,0.5,0],[1,0.75,0],[0.75,1,0],[0.5,1,0],[0.25,1,0],[0,0.75,0],[0,0.5,0],[0,0.25,0]];shape=mxgraph.bpmn.task;whiteSpace=wrap;rectStyle=rounded;size=10;taskMarker=abstract;isLoopMultiParallel=1;fontSize=15;strokeWidth=2;" parent="RrkdCd4so9SFuspl1RXy-3" vertex="1">
          <mxGeometry x="160" y="120" width="150" height="80" as="geometry" />
        </mxCell>
        <mxCell id="RrkdCd4so9SFuspl1RXy-22" style="edgeStyle=orthogonalEdgeStyle;rounded=0;jumpStyle=arc;orthogonalLoop=1;jettySize=auto;html=1;labelBackgroundColor=default;fontSize=15;startArrow=none;startFill=0;endArrow=open;endFill=0;strokeWidth=2;" parent="RrkdCd4so9SFuspl1RXy-3" source="RrkdCd4so9SFuspl1RXy-23" target="RrkdCd4so9SFuspl1RXy-70" edge="1">
          <mxGeometry relative="1" as="geometry">
            <Array as="points">
              <mxPoint x="1709" y="305" />
            </Array>
          </mxGeometry>
        </mxCell>
        <mxCell id="RrkdCd4so9SFuspl1RXy-23" value="Processos VITIS &lt;br&gt;terminados" style="points=[[0.145,0.145,0],[0.5,0,0],[0.855,0.145,0],[1,0.5,0],[0.855,0.855,0],[0.5,1,0],[0.145,0.855,0],[0,0.5,0]];shape=mxgraph.bpmn.event;html=1;verticalLabelPosition=bottom;labelBackgroundColor=#ffffff;verticalAlign=top;align=center;perimeter=ellipsePerimeter;outlineConnect=0;aspect=fixed;outline=standard;symbol=conditional;fillColor=none;" parent="RrkdCd4so9SFuspl1RXy-3" vertex="1">
          <mxGeometry x="1100" y="275" width="50" height="50" as="geometry" />
        </mxCell>
        <mxCell id="RrkdCd4so9SFuspl1RXy-24" value="Parcela pertence à&lt;br&gt;região demarcada do Douro" style="edgeStyle=orthogonalEdgeStyle;rounded=0;jumpStyle=arc;orthogonalLoop=1;jettySize=auto;html=1;labelBackgroundColor=default;fontSize=15;startArrow=none;startFill=0;endArrow=classic;endFill=1;strokeWidth=2;" parent="RrkdCd4so9SFuspl1RXy-3" source="RrkdCd4so9SFuspl1RXy-27" target="RrkdCd4so9SFuspl1RXy-69" edge="1">
          <mxGeometry x="-0.0714" relative="1" as="geometry">
            <mxPoint x="670" y="160" as="targetPoint" />
            <mxPoint x="-1" as="offset" />
          </mxGeometry>
        </mxCell>
        <mxCell id="RrkdCd4so9SFuspl1RXy-25" style="edgeStyle=orthogonalEdgeStyle;rounded=0;jumpStyle=arc;orthogonalLoop=1;jettySize=auto;html=1;labelBackgroundColor=default;fontSize=15;startArrow=none;startFill=0;endArrow=classic;endFill=1;strokeWidth=2;" parent="RrkdCd4so9SFuspl1RXy-3" source="RrkdCd4so9SFuspl1RXy-27" target="RrkdCd4so9SFuspl1RXy-9" edge="1">
          <mxGeometry relative="1" as="geometry">
            <mxPoint x="830" y="240" as="targetPoint" />
            <Array as="points">
              <mxPoint x="395" y="240" />
              <mxPoint x="850" y="240" />
            </Array>
          </mxGeometry>
        </mxCell>
        <mxCell id="RrkdCd4so9SFuspl1RXy-26" value="&lt;span style=&quot;background-color: rgb(248 , 249 , 250)&quot;&gt;Parcela não pertence à&lt;/span&gt;&lt;br style=&quot;background-color: rgb(248 , 249 , 250)&quot;&gt;&lt;span style=&quot;background-color: rgb(248 , 249 , 250)&quot;&gt;região demarcada do Douro&lt;/span&gt;" style="edgeLabel;html=1;align=center;verticalAlign=middle;resizable=0;points=[];fontSize=15;" parent="RrkdCd4so9SFuspl1RXy-25" vertex="1" connectable="0">
          <mxGeometry x="0.1344" y="2" relative="1" as="geometry">
            <mxPoint x="-142" as="offset" />
          </mxGeometry>
        </mxCell>
        <mxCell id="RrkdCd4so9SFuspl1RXy-27" value="" style="points=[[0.25,0.25,0],[0.5,0,0],[0.75,0.25,0],[1,0.5,0],[0.75,0.75,0],[0.5,1,0],[0.25,0.75,0],[0,0.5,0]];shape=mxgraph.bpmn.gateway2;html=1;verticalLabelPosition=bottom;labelBackgroundColor=#ffffff;verticalAlign=top;align=center;perimeter=rhombusPerimeter;outlineConnect=0;outline=none;symbol=none;gwType=exclusive;fontSize=15;strokeWidth=2;" parent="RrkdCd4so9SFuspl1RXy-3" vertex="1">
          <mxGeometry x="370" y="135" width="50" height="50" as="geometry" />
        </mxCell>
        <mxCell id="RrkdCd4so9SFuspl1RXy-28" style="edgeStyle=orthogonalEdgeStyle;rounded=0;jumpStyle=arc;orthogonalLoop=1;jettySize=auto;html=1;labelBackgroundColor=default;fontSize=15;startArrow=none;startFill=0;endArrow=classic;endFill=1;strokeWidth=2;" parent="RrkdCd4so9SFuspl1RXy-3" source="RrkdCd4so9SFuspl1RXy-69" target="RrkdCd4so9SFuspl1RXy-9" edge="1">
          <mxGeometry relative="1" as="geometry">
            <mxPoint x="790" y="160" as="sourcePoint" />
          </mxGeometry>
        </mxCell>
        <mxCell id="RrkdCd4so9SFuspl1RXy-29" style="edgeStyle=orthogonalEdgeStyle;rounded=0;jumpStyle=arc;orthogonalLoop=1;jettySize=auto;html=1;labelBackgroundColor=default;fontSize=15;startArrow=none;startFill=0;endArrow=open;endFill=0;strokeWidth=2;" parent="RrkdCd4so9SFuspl1RXy-3" source="RrkdCd4so9SFuspl1RXy-33" target="RrkdCd4so9SFuspl1RXy-70" edge="1">
          <mxGeometry relative="1" as="geometry">
            <mxPoint x="1370" y="160" as="targetPoint" />
          </mxGeometry>
        </mxCell>
        <mxCell id="RrkdCd4so9SFuspl1RXy-30" value="Candidatura financiada" style="edgeLabel;html=1;align=center;verticalAlign=middle;resizable=0;points=[];fontSize=15;" parent="RrkdCd4so9SFuspl1RXy-29" vertex="1" connectable="0">
          <mxGeometry x="0.2692" relative="1" as="geometry">
            <mxPoint x="-43" as="offset" />
          </mxGeometry>
        </mxCell>
        <mxCell id="RrkdCd4so9SFuspl1RXy-31" style="edgeStyle=orthogonalEdgeStyle;rounded=0;jumpStyle=arc;orthogonalLoop=1;jettySize=auto;html=1;labelBackgroundColor=default;fontSize=15;startArrow=none;startFill=0;endArrow=open;endFill=0;strokeWidth=2;" parent="RrkdCd4so9SFuspl1RXy-3" source="RrkdCd4so9SFuspl1RXy-33" target="RrkdCd4so9SFuspl1RXy-35" edge="1">
          <mxGeometry relative="1" as="geometry">
            <Array as="points">
              <mxPoint x="1150" y="240" />
            </Array>
          </mxGeometry>
        </mxCell>
        <mxCell id="RrkdCd4so9SFuspl1RXy-32" value="Candidatura &lt;br&gt;aprovada" style="edgeLabel;html=1;align=center;verticalAlign=middle;resizable=0;points=[];fontSize=15;" parent="RrkdCd4so9SFuspl1RXy-31" vertex="1" connectable="0">
          <mxGeometry x="0.0083" y="2" relative="1" as="geometry">
            <mxPoint as="offset" />
          </mxGeometry>
        </mxCell>
        <mxCell id="RrkdCd4so9SFuspl1RXy-33" value="" style="points=[[0.25,0.25,0],[0.5,0,0],[0.75,0.25,0],[1,0.5,0],[0.75,0.75,0],[0.5,1,0],[0.25,0.75,0],[0,0.5,0]];shape=mxgraph.bpmn.gateway2;html=1;verticalLabelPosition=bottom;labelBackgroundColor=#ffffff;verticalAlign=top;align=center;perimeter=rhombusPerimeter;outlineConnect=0;outline=none;symbol=none;gwType=exclusive;fontSize=15;strokeWidth=2;" parent="RrkdCd4so9SFuspl1RXy-3" vertex="1">
          <mxGeometry x="1110" y="135" width="50" height="50" as="geometry" />
        </mxCell>
        <mxCell id="RrkdCd4so9SFuspl1RXy-34" style="edgeStyle=orthogonalEdgeStyle;rounded=0;jumpStyle=arc;orthogonalLoop=1;jettySize=auto;html=1;labelBackgroundColor=default;fontSize=15;startArrow=none;startFill=0;endArrow=open;endFill=0;strokeWidth=2;" parent="RrkdCd4so9SFuspl1RXy-3" source="RrkdCd4so9SFuspl1RXy-35" target="RrkdCd4so9SFuspl1RXy-70" edge="1">
          <mxGeometry relative="1" as="geometry">
            <mxPoint x="1460" y="200" as="targetPoint" />
            <Array as="points">
              <mxPoint x="1680" y="235" />
            </Array>
          </mxGeometry>
        </mxCell>
        <mxCell id="RrkdCd4so9SFuspl1RXy-35" value="Candidaturas financiadas &lt;br&gt;terminadas" style="points=[[0.145,0.145,0],[0.5,0,0],[0.855,0.145,0],[1,0.5,0],[0.855,0.855,0],[0.5,1,0],[0.145,0.855,0],[0,0.5,0]];shape=mxgraph.bpmn.event;html=1;verticalLabelPosition=bottom;labelBackgroundColor=#ffffff;verticalAlign=top;align=center;perimeter=ellipsePerimeter;outlineConnect=0;aspect=fixed;outline=standard;symbol=conditional;fillColor=none;" parent="RrkdCd4so9SFuspl1RXy-3" vertex="1">
          <mxGeometry x="1294" y="210" width="50" height="50" as="geometry" />
        </mxCell>
        <mxCell id="RrkdCd4so9SFuspl1RXy-51" style="edgeStyle=orthogonalEdgeStyle;rounded=0;jumpStyle=arc;orthogonalLoop=1;jettySize=auto;html=1;dashed=1;fontFamily=Roboto;fontSource=https%3A%2F%2Ffonts.googleapis.com%2Fcss%3Ffamily%3DRoboto;fontSize=15;fontColor=#000000;startArrow=none;startFill=0;endArrow=classic;endFill=1;strokeWidth=2;" parent="RrkdCd4so9SFuspl1RXy-3" source="RrkdCd4so9SFuspl1RXy-49" target="RrkdCd4so9SFuspl1RXy-69" edge="1">
          <mxGeometry relative="1" as="geometry">
            <mxPoint x="730" y="120" as="targetPoint" />
          </mxGeometry>
        </mxCell>
        <mxCell id="RrkdCd4so9SFuspl1RXy-49" value="Registos PORVID" style="shape=mxgraph.bpmn.data;labelPosition=center;verticalLabelPosition=top;align=center;verticalAlign=bottom;whiteSpace=wrap;size=15;html=1;fontFamily=Roboto;fontSource=https%3A%2F%2Ffonts.googleapis.com%2Fcss%3Ffamily%3DRoboto;fontSize=15;fontColor=#000000;strokeColor=default;strokeWidth=2;fillColor=default;gradientColor=none;" parent="RrkdCd4so9SFuspl1RXy-3" vertex="1">
          <mxGeometry x="707" y="40" width="40" height="50" as="geometry" />
        </mxCell>
        <mxCell id="RrkdCd4so9SFuspl1RXy-69" value="&lt;span style=&quot;font-family: &amp;#34;helvetica&amp;#34;&quot;&gt;Associar informação IVDP&lt;/span&gt;" style="points=[[0.25,0,0],[0.5,0,0],[0.75,0,0],[1,0.25,0],[1,0.5,0],[1,0.75,0],[0.75,1,0],[0.5,1,0],[0.25,1,0],[0,0.75,0],[0,0.5,0],[0,0.25,0]];shape=mxgraph.bpmn.task;whiteSpace=wrap;rectStyle=rounded;size=10;taskMarker=manual;fontFamily=Roboto;fontSource=https%3A%2F%2Ffonts.googleapis.com%2Fcss%3Ffamily%3DRoboto;fontSize=15;fontColor=#000000;strokeColor=default;strokeWidth=2;fillColor=default;gradientColor=none;html=1;" parent="RrkdCd4so9SFuspl1RXy-3" vertex="1">
          <mxGeometry x="667" y="120" width="120" height="80" as="geometry" />
        </mxCell>
        <mxCell id="RrkdCd4so9SFuspl1RXy-73" style="edgeStyle=orthogonalEdgeStyle;rounded=0;jumpStyle=arc;orthogonalLoop=1;jettySize=auto;html=1;fontFamily=Roboto;fontSource=https%3A%2F%2Ffonts.googleapis.com%2Fcss%3Ffamily%3DRoboto;fontSize=15;fontColor=#000000;startArrow=none;startFill=0;endArrow=classic;endFill=1;strokeWidth=2;" parent="RrkdCd4so9SFuspl1RXy-3" source="RrkdCd4so9SFuspl1RXy-70" target="RrkdCd4so9SFuspl1RXy-72" edge="1">
          <mxGeometry relative="1" as="geometry" />
        </mxCell>
        <mxCell id="RrkdCd4so9SFuspl1RXy-70" value="&lt;span style=&quot;font-family: &amp;#34;helvetica&amp;#34;&quot;&gt;Identificação de vinhas velhas&amp;nbsp;geograficamente próximas&lt;/span&gt;" style="points=[[0.25,0,0],[0.5,0,0],[0.75,0,0],[1,0.25,0],[1,0.5,0],[1,0.75,0],[0.75,1,0],[0.5,1,0],[0.25,1,0],[0,0.75,0],[0,0.5,0],[0,0.25,0]];shape=mxgraph.bpmn.task;whiteSpace=wrap;rectStyle=rounded;size=10;taskMarker=manual;fontFamily=Roboto;fontSource=https%3A%2F%2Ffonts.googleapis.com%2Fcss%3Ffamily%3DRoboto;fontSize=15;fontColor=#000000;strokeColor=default;strokeWidth=2;fillColor=default;gradientColor=none;html=1;" parent="RrkdCd4so9SFuspl1RXy-3" vertex="1">
          <mxGeometry x="1614" y="120" width="190" height="80" as="geometry" />
        </mxCell>
        <mxCell id="RrkdCd4so9SFuspl1RXy-72" value="&lt;span style=&quot;font-family: &amp;#34;helvetica&amp;#34;&quot;&gt;Agrupamento de parcelas para recolha&lt;/span&gt;" style="points=[[0.25,0,0],[0.5,0,0],[0.75,0,0],[1,0.25,0],[1,0.5,0],[1,0.75,0],[0.75,1,0],[0.5,1,0],[0.25,1,0],[0,0.75,0],[0,0.5,0],[0,0.25,0]];shape=mxgraph.bpmn.task;whiteSpace=wrap;rectStyle=rounded;size=10;taskMarker=manual;fontFamily=Roboto;fontSource=https%3A%2F%2Ffonts.googleapis.com%2Fcss%3Ffamily%3DRoboto;fontSize=15;fontColor=#000000;strokeColor=default;strokeWidth=2;fillColor=default;gradientColor=none;html=1;" parent="RrkdCd4so9SFuspl1RXy-3" vertex="1">
          <mxGeometry x="1844" y="120" width="150" height="80" as="geometry" />
        </mxCell>
        <mxCell id="RrkdCd4so9SFuspl1RXy-54" value="&lt;span style=&quot;background-color: rgb(255 , 255 , 255)&quot;&gt;PN5. Integração Informação IVDP&lt;/span&gt;" style="swimlane;html=1;childLayout=stackLayout;resizeParent=1;resizeParentMax=0;horizontal=1;startSize=20;horizontalStack=0;fontSize=15;" parent="1" vertex="1">
          <mxGeometry x="40" y="650" width="530" height="500" as="geometry" />
        </mxCell>
        <mxCell id="RrkdCd4so9SFuspl1RXy-55" value="IVDP" style="swimlane;html=1;startSize=20;horizontal=0;fontSize=15;" parent="RrkdCd4so9SFuspl1RXy-54" vertex="1">
          <mxGeometry y="20" width="530" height="250" as="geometry" />
        </mxCell>
        <mxCell id="RrkdCd4so9SFuspl1RXy-56" value="SI IVDP" style="shape=datastore;labelPosition=center;verticalLabelPosition=top;align=center;verticalAlign=bottom;rounded=0;shadow=0;glass=0;sketch=0;fontSize=15;html=1;" parent="RrkdCd4so9SFuspl1RXy-55" vertex="1">
          <mxGeometry x="205" y="30" width="40" height="50" as="geometry" />
        </mxCell>
        <mxCell id="RrkdCd4so9SFuspl1RXy-57" value="Partilha dados com PORVID" style="points=[[0.25,0,0],[0.5,0,0],[0.75,0,0],[1,0.25,0],[1,0.5,0],[1,0.75,0],[0.75,1,0],[0.5,1,0],[0.25,1,0],[0,0.75,0],[0,0.5,0],[0,0.25,0]];shape=mxgraph.bpmn.task;whiteSpace=wrap;rectStyle=rounded;size=10;taskMarker=send;rounded=0;shadow=0;glass=0;sketch=0;fontSize=15;align=center;verticalAlign=middle;html=1;strokeWidth=1;" parent="RrkdCd4so9SFuspl1RXy-55" vertex="1">
          <mxGeometry x="350" y="110" width="130" height="80" as="geometry" />
        </mxCell>
        <mxCell id="RrkdCd4so9SFuspl1RXy-58" value="&lt;span style=&quot;font-family: &amp;#34;helvetica&amp;#34;&quot;&gt;Preparação de informação sobre parcelas verificadas&lt;/span&gt;" style="points=[[0.25,0,0],[0.5,0,0],[0.75,0,0],[1,0.25,0],[1,0.5,0],[1,0.75,0],[0.75,1,0],[0.5,1,0],[0.25,1,0],[0,0.75,0],[0,0.5,0],[0,0.25,0]];shape=mxgraph.bpmn.task;whiteSpace=wrap;rectStyle=rounded;size=10;taskMarker=abstract;isLoopStandard=1;fontFamily=Roboto;fontSource=https%3A%2F%2Ffonts.googleapis.com%2Fcss%3Ffamily%3DRoboto;fontSize=15;fontColor=#000000;strokeColor=default;strokeWidth=1;fillColor=default;gradientColor=none;html=1;" parent="RrkdCd4so9SFuspl1RXy-55" vertex="1">
          <mxGeometry x="150" y="110" width="150" height="80" as="geometry" />
        </mxCell>
        <mxCell id="RrkdCd4so9SFuspl1RXy-59" style="edgeStyle=orthogonalEdgeStyle;rounded=0;jumpStyle=arc;orthogonalLoop=1;jettySize=auto;html=1;labelBackgroundColor=default;fontSize=15;startArrow=none;startFill=0;endArrow=classic;endFill=1;strokeWidth=2;" parent="RrkdCd4so9SFuspl1RXy-55" source="RrkdCd4so9SFuspl1RXy-62" target="RrkdCd4so9SFuspl1RXy-58" edge="1">
          <mxGeometry relative="1" as="geometry">
            <mxPoint x="150" y="150" as="targetPoint" />
            <mxPoint x="90" y="150" as="sourcePoint" />
          </mxGeometry>
        </mxCell>
        <mxCell id="RrkdCd4so9SFuspl1RXy-60" style="edgeStyle=orthogonalEdgeStyle;rounded=0;orthogonalLoop=1;jettySize=auto;html=1;fontSize=15;startArrow=none;startFill=0;endArrow=classic;endFill=1;strokeWidth=2;dashed=1;" parent="RrkdCd4so9SFuspl1RXy-55" source="RrkdCd4so9SFuspl1RXy-56" target="RrkdCd4so9SFuspl1RXy-58" edge="1">
          <mxGeometry relative="1" as="geometry">
            <mxPoint x="225" y="190" as="targetPoint" />
          </mxGeometry>
        </mxCell>
        <mxCell id="RrkdCd4so9SFuspl1RXy-61" style="edgeStyle=orthogonalEdgeStyle;rounded=0;orthogonalLoop=1;jettySize=auto;html=1;fontSize=15;startArrow=none;startFill=0;endArrow=classic;endFill=1;strokeWidth=2;" parent="RrkdCd4so9SFuspl1RXy-55" source="RrkdCd4so9SFuspl1RXy-58" target="RrkdCd4so9SFuspl1RXy-57" edge="1">
          <mxGeometry relative="1" as="geometry">
            <mxPoint x="300" y="150" as="sourcePoint" />
          </mxGeometry>
        </mxCell>
        <mxCell id="RrkdCd4so9SFuspl1RXy-62" value="A cada 12 meses" style="points=[[0.145,0.145,0],[0.5,0,0],[0.855,0.145,0],[1,0.5,0],[0.855,0.855,0],[0.5,1,0],[0.145,0.855,0],[0,0.5,0]];shape=mxgraph.bpmn.event;html=1;verticalLabelPosition=bottom;labelBackgroundColor=#ffffff;verticalAlign=top;align=center;perimeter=ellipsePerimeter;outlineConnect=0;aspect=fixed;outline=standard;symbol=timer;fontSize=15;whiteSpace=wrap;" parent="RrkdCd4so9SFuspl1RXy-55" vertex="1">
          <mxGeometry x="50" y="125" width="50" height="50" as="geometry" />
        </mxCell>
        <mxCell id="RrkdCd4so9SFuspl1RXy-63" value="PORVID" style="swimlane;html=1;startSize=20;horizontal=0;fontSize=15;" parent="RrkdCd4so9SFuspl1RXy-54" vertex="1">
          <mxGeometry y="270" width="530" height="230" as="geometry" />
        </mxCell>
        <mxCell id="RrkdCd4so9SFuspl1RXy-64" style="edgeStyle=orthogonalEdgeStyle;rounded=0;orthogonalLoop=1;jettySize=auto;html=1;dashed=1;fontSize=15;strokeWidth=2;" parent="RrkdCd4so9SFuspl1RXy-63" source="RrkdCd4so9SFuspl1RXy-74" target="RrkdCd4so9SFuspl1RXy-68" edge="1">
          <mxGeometry relative="1" as="geometry">
            <mxPoint x="415" y="100" as="sourcePoint" />
            <mxPoint x="415" y="140" as="targetPoint" />
          </mxGeometry>
        </mxCell>
        <mxCell id="RrkdCd4so9SFuspl1RXy-68" value="Registos PORVID" style="shape=mxgraph.bpmn.data;labelPosition=center;verticalLabelPosition=bottom;align=center;verticalAlign=top;whiteSpace=wrap;size=15;html=1;fontFamily=Roboto;fontSource=https%3A%2F%2Ffonts.googleapis.com%2Fcss%3Ffamily%3DRoboto;fontSize=15;fontColor=#000000;strokeColor=default;strokeWidth=2;fillColor=default;gradientColor=none;" parent="RrkdCd4so9SFuspl1RXy-63" vertex="1">
          <mxGeometry x="395" y="130" width="40" height="50" as="geometry" />
        </mxCell>
        <mxCell id="RrkdCd4so9SFuspl1RXy-74" value="&lt;span style=&quot;font-family: &amp;#34;helvetica&amp;#34;&quot;&gt;Atualização registo PORVID&lt;/span&gt;" style="points=[[0.25,0,0],[0.5,0,0],[0.75,0,0],[1,0.25,0],[1,0.5,0],[1,0.75,0],[0.75,1,0],[0.5,1,0],[0.25,1,0],[0,0.75,0],[0,0.5,0],[0,0.25,0]];shape=mxgraph.bpmn.task;whiteSpace=wrap;rectStyle=rounded;size=10;taskMarker=manual;fontFamily=Roboto;fontSource=https%3A%2F%2Ffonts.googleapis.com%2Fcss%3Ffamily%3DRoboto;fontSize=15;fontColor=#000000;strokeColor=default;strokeWidth=2;fillColor=default;gradientColor=none;html=1;" parent="RrkdCd4so9SFuspl1RXy-63" vertex="1">
          <mxGeometry x="355" y="20" width="120" height="80" as="geometry" />
        </mxCell>
        <mxCell id="RrkdCd4so9SFuspl1RXy-67" style="edgeStyle=orthogonalEdgeStyle;rounded=0;orthogonalLoop=1;jettySize=auto;html=1;fontSize=15;startArrow=oval;startFill=0;endArrow=classic;endFill=1;strokeWidth=2;dashed=1;" parent="RrkdCd4so9SFuspl1RXy-54" source="RrkdCd4so9SFuspl1RXy-57" target="RrkdCd4so9SFuspl1RXy-74" edge="1">
          <mxGeometry relative="1" as="geometry">
            <Array as="points" />
            <mxPoint x="415" y="290" as="targetPoint" />
            <mxPoint x="225" y="840" as="sourcePoint" />
          </mxGeometry>
        </mxCell>
      </root>
    </mxGraphModel>
  </diagram>
</mxfile>
